{
  "title": "The.Salt.of.the.Earth.2014.BRRip.x264.HORiZON-ArtSubs",
  "uid": 11828220,
  "size": 2488546978,
  "categoryP": "video",
  "categoryS": "movies",
  "magnet": "?xt=urn:btih:c841bded7391c1c23df7e48494aea699b5969c61&amp;dn=The.Salt.of.the.Earth.2014.BRRip.x264.HORiZON-ArtSubs&amp;tr=udp%3A%2F%2Ftracker.openbittorrent.com%3A80&amp;tr=udp%3A%2F%2Fopen.demonii.com%3A1337&amp;tr=udp%3A%2F%2Ftracker.coppersurfer.tk%3A6969&amp;tr=udp%3A%2F%2Fexodus.desync.com%3A6969",
  "seeders": 355,
  "leechers": 33,
  "uploader": "lletaif",
  "files": 1,
  "time": 1429550771,
  "description": "Media Info:\n\nGeneral\nUnique ID                                : 205476987967138718539702958848182994342 (0x9A956DABAD70E6E8877B4146CBF645A6)\nComplete name                            : The.Salt.of.the.Earth.2014.BRRip.x264.HORiZON-ArtSubs.mkv\nFormat                                   : Matroska\nFormat version                           : Version 2\nFile size                                : 2.32 GiB\nDuration                                 : 1h 50mn\nOverall bit rate mode                    : Variable\nOverall bit rate                         : 3 016 Kbps\nMovie name                               : The.Salt.of.the.Earth.2014.BRRip.x264.HORiZON-ArtSubs\nEncoded date                             : UTC 2015-04-19 22:45:41\nWriting application                      : DVDFab 9.1.4.0\nWriting library                          : libebml v0.7.8 + libmatroska v0.8.1\n\nVideo\nID                                       : 1\nFormat                                   : AVC\nFormat/Info                              : Advanced Video Codec\nFormat profile                           : &lt;a class=&quot;__cf_email__&quot; href=&quot;/cdn-cgi/l/email-protection&quot; data-cfemail=&quot;8dc5e4eae5cdc1b9a3bc&quot;&gt;[email&amp;#160;protected]&lt;/a&gt;&lt;script cf-hash='f9e31' type=&quot;text/javascript&quot;&gt;\n/* &lt;![CDATA[ */!function(){try{var t=&quot;currentScript&quot;in document?document.currentScript:function(){for(var t=document.getElementsByTagName(&quot;script&quot;),e=t.length;e--;)if(t[e].getAttribute(&quot;cf-hash&quot;))return t[e]}();if(t&amp;&amp;t.previousSibling){var e,r,n,i,c=t.previousSibling,a=c.getAttribute(&quot;data-cfemail&quot;);if(a){for(e=&quot;&quot;,r=parseInt(a.substr(0,2),16),n=2;a.length-n;n+=2)i=parseInt(a.substr(n,2),16)^r,e+=String.fromCharCode(i);e=document.createTextNode(e),c.parentNode.replaceChild(e,c)}}}catch(u){}}();/* ]]&gt; */&lt;/script&gt;\nFormat settings, CABAC                   : Yes\nFormat settings, ReFrames                : 2 frames\nCodec ID                                 : V_MPEG4/ISO/AVC\nDuration                                 : 1h 50mn\nBit rate mode                            : Variable\nBit rate                                 : 2 060 Kbps\nMaximum bit rate                         : 3 226 Kbps\nWidth                                    : 1 024 pixels\nHeight                                   : 684 pixels\nDisplay aspect ratio                     : 3:2\nFrame rate mode                          : Constant\nFrame rate                               : 23.976 fps\nColor space                              : YUV\nChroma subsampling                       : 4:2:0\nBit depth                                : 8 bits\nScan type                                : Progressive\nBits/(Pixel*Frame)                       : 0.123\nStream size                              : 1.58 GiB (68%)\nDefault                                  : Yes\nForced                                   : No\n\nAudio #1\nID                                       : 2\nFormat                                   : AC-3\nFormat/Info                              : Audio Coding 3\nMode extension                           : CM (complete main)\nFormat settings, Endianness              : Big\nCodec ID                                 : A_AC3\nDuration                                 : 1h 50mn\nBit rate mode                            : Constant\nBit rate                                 : 448 Kbps\nChannel(s)                               : 6 channels\nChannel positions                        : Front: L C R, Side: L R, LFE\nSampling rate                            : 48.0 KHz\nBit depth                                : 16 bits\nCompression mode                         : Lossy\nStream size                              : 353 MiB (15%)\nLanguage                                 : French\nDefault                                  : Yes\nForced                                   : No\n\nAudio #2\nID                                       : 3\nFormat                                   : AC-3\nFormat/Info                              : Audio Coding 3\nMode extension                           : CM (complete main)\nFormat settings, Endianness              : Big\nCodec ID                                 : A_AC3\nDuration                                 : 1h 50mn\nBit rate mode                            : Constant\nBit rate                                 : 448 Kbps\nChannel(s)                               : 6 channels\nChannel positions                        : Front: L C R, Side: L R, LFE\nSampling rate                            : 48.0 KHz\nBit depth                                : 16 bits\nCompression mode                         : Lossy\nStream size                              : 353 MiB (15%)\nLanguage                                 : French\nDefault                                  : No\nForced                                   : No",
  "parsed": {
    "xt": "urn:btih:c841bded7391c1c23df7e48494aea699b5969c61",
    "dn": "The.Salt.of.the.Earth.2014.BRRip.x264.HORiZON-ArtSubs",
    "tr": [
      "udp://exodus.desync.com:6969",
      "udp://open.demonii.com:1337",
      "udp://tracker.coppersurfer.tk:6969",
      "udp://tracker.openbittorrent.com:80"
    ],
    "infoHash": "c841bded7391c1c23df7e48494aea699b5969c61",
    "infoHashBuffer": {
      "type": "Buffer",
      "data": [
        200,
        65,
        189,
        237,
        115,
        145,
        193,
        194,
        61,
        247,
        228,
        132,
        148,
        174,
        166,
        153,
        181,
        150,
        156,
        97
      ]
    },
    "name": "The.Salt.of.the.Earth.2014.BRRip.x264.HORiZON-ArtSubs",
    "announce": [
      "udp://exodus.desync.com:6969",
      "udp://open.demonii.com:1337",
      "udp://tracker.coppersurfer.tk:6969",
      "udp://tracker.openbittorrent.com:80"
    ],
    "urlList": []
  },
  "previous": 108,
  "peers": 156,
  "last_updated": "2016-12-27T12:52:27.225Z"
}